<?xml version="1.0" encoding="UTF-8"?>
<svg version="1.1" xmlns="http://www.w3.org/2000/svg" width="191" height="189">
<path d="M0 0 C6.04510645 2.30609617 11.89689246 4.97819116 17 9 C18.35243647 12.02713319 18.23713041 13.62089173 18 17 C19.05767578 17.16822266 19.05767578 17.16822266 20.13671875 17.33984375 C23.27389512 18.06314908 25.90127906 19.19457691 28.8125 20.5625 C30.27623047 21.24505859 30.27623047 21.24505859 31.76953125 21.94140625 C32.50558594 22.29074219 33.24164063 22.64007813 34 23 C33.4308221 27.28052969 31.91990078 30.09503685 29.5625 33.6875 C28.94503906 34.64011719 28.32757813 35.59273437 27.69140625 36.57421875 C26 39 26 39 24 41 C20.375 41.125 20.375 41.125 17 41 C16.9071875 42.1446875 16.9071875 42.1446875 16.8125 43.3125 C15.65512209 48.56521514 13.32802005 53.1721503 11 58 C6.7259336 56.7019502 3.02233946 55.10501005 -0.8125 52.8125 C-2.24529297 51.98685547 -2.24529297 51.98685547 -3.70703125 51.14453125 C-6.76254827 48.28681601 -6.78006218 46.08106839 -7 42 C-8.05960938 41.60167969 -9.11921875 41.20335937 -10.2109375 40.79296875 C-11.59915317 40.25831812 -12.98716346 39.72313399 -14.375 39.1875 C-15.07367188 38.92646484 -15.77234375 38.66542969 -16.4921875 38.39648438 C-20.12525926 36.98168239 -21.78468531 36.32297203 -24 33 C-22.52260269 30.5197633 -21.04317579 28.0407783 -19.5625 25.5625 C-19.14162109 24.85544922 -18.72074219 24.14839844 -18.28710938 23.41992188 C-15.11328125 18.11328125 -15.11328125 18.11328125 -14 17 C-11.67182036 16.63239269 -9.3381615 16.29758419 -7 16 C-6.66226563 15.01257813 -6.32453125 14.02515625 -5.9765625 13.0078125 C-5.52634467 11.71343623 -5.07580716 10.41917113 -4.625 9.125 C-4.29242188 8.14853516 -4.29242188 8.14853516 -3.953125 7.15234375 C-2.93037374 4.23449455 -2.21443349 2.21443349 0 0 Z M-2 11 C-2.66 12.98 -3.32 14.96 -4 17 C-3.01 17.33 -2.02 17.66 -1 18 C-1 19.98 -1 21.96 -1 24 C-3.64 24.33 -6.28 24.66 -9 25 C-9 28.3 -9 31.6 -9 35 C-9.99 35.33 -10.98 35.66 -12 36 C-10.02 36.66 -8.04 37.32 -6 38 C-5.67 37.01 -5.34 36.02 -5 35 C-3.35 35 -1.7 35 0 35 C0.33 37.64 0.66 40.28 1 43 C1.62648438 43.02578125 2.25296875 43.0515625 2.8984375 43.078125 C4.12433594 43.16320312 4.12433594 43.16320312 5.375 43.25 C6.18710938 43.29640625 6.99921875 43.3428125 7.8359375 43.390625 C10 44 10 44 11.2890625 46.046875 C11.52367188 46.69140625 11.75828125 47.3359375 12 48 C12.12375 47.030625 12.2475 46.06125 12.375 45.0625 C12.58125 44.051875 12.7875 43.04125 13 42 C13.66 41.67 14.32 41.34 15 41 C14.01 40.67 13.02 40.34 12 40 C11.67 37.69 11.34 35.38 11 33 C13.64 33 16.28 33 19 33 C19.33 29.7 19.66 26.4 20 23 C20.99 22.67 21.98 22.34 23 22 C21.02 21.34 19.04 20.68 17 20 C17 20.99 17 21.98 17 23 C14.69 23 12.38 23 10 23 C10 20.36 10 17.72 10 15 C9.30132812 14.96261719 8.60265625 14.92523438 7.8828125 14.88671875 C6.97273438 14.82097656 6.06265625 14.75523438 5.125 14.6875 C4.22007813 14.62949219 3.31515625 14.57148437 2.3828125 14.51171875 C0 14 0 14 -2 11 Z " fill="#1A9C8F" transform="translate(89,50)"/>
<path d="M0 0 C3.96 0 7.92 0 12 0 C12 1.32 12 2.64 12 4 C9.03 4 6.06 4 3 4 C3 7.3 3 10.6 3 14 C0.69 14 -1.62 14 -4 14 C-4 14.66 -4 15.32 -4 16 C-4.99 16 -5.98 16 -7 16 C-7.49940808 9.88225104 -6.24900602 6.97504047 -3 2 C-2.01 2 -1.02 2 0 2 C0 1.34 0 0.68 0 0 Z " fill="#069F90" transform="translate(75,69)"/>
<path d="M0 0 C0.99 0 1.98 0 3 0 C3 1.65 3 3.3 3 5 C2.01 5.495 2.01 5.495 1 6 C0.67 6.99 0.34 7.98 0 9 C-0.99 9.33 -1.98 9.66 -3 10 C-2.814375 10.598125 -2.62875 11.19625 -2.4375 11.8125 C-2 14 -2 14 -3 17 C-6.3 17 -9.6 17 -13 17 C-13 16.34 -13 15.68 -13 15 C-13.99 15.33 -14.98 15.66 -16 16 C-16 14.68 -16 13.36 -16 12 C-13.03 12 -10.06 12 -7 12 C-7.66 11.34 -8.32 10.68 -9 10 C-9.26991906 7.31160615 -9.08737357 4.70858064 -9 2 C-6.03 2 -3.06 2 0 2 C0 1.34 0 0.68 0 0 Z " fill="#06A191" transform="translate(117,73)"/>
<path d="M0 0 C3.88601131 1.44337563 8.01811912 3.01811912 11 6 C11.845625 6.28875 12.69125 6.5775 13.5625 6.875 C16 9 16 9 16.328125 11.64453125 C16.31374883 14.44429006 16.21325714 17.20870102 16 20 C14.35 20 12.7 20 11 20 C10.20046862 16.71303767 9.90341064 15.28976808 11 12 C7.7 11.67 4.4 11.34 1 11 C1 8.69 1 6.38 1 4 C0.34 4 -0.32 4 -1 4 C-0.67 2.68 -0.34 1.36 0 0 Z " fill="#07A191" transform="translate(89,52)"/>
<path d="M0 0 C2.4375 0.375 2.4375 0.375 5 1 C5.33 1.66 5.66 2.32 6 3 C6.66 2.01 7.32 1.02 8 0 C9.32 0 10.64 0 12 0 C12.19466332 1.79090253 12.38051213 3.58276505 12.5625 5.375 C12.66691406 6.37273437 12.77132812 7.37046875 12.87890625 8.3984375 C13 11 13 11 12 13 C10.18757948 13.02687279 8.37504767 13.04633715 6.5625 13.0625 C5.55316406 13.07410156 4.54382813 13.08570313 3.50390625 13.09765625 C1 13 1 13 0 12 C-0.07244053 9.98035801 -0.08377188 7.95832876 -0.0625 5.9375 C-0.05347656 4.83277344 -0.04445313 3.72804688 -0.03515625 2.58984375 C-0.02355469 1.73519531 -0.01195313 0.88054687 0 0 Z " fill="#2BB2A5" transform="translate(25,116)"/>
<path d="M0 0 C0.5775 0.37125 1.155 0.7425 1.75 1.125 C4 2.29166667 4 2.29166667 6.25 1.125 C7.11625 0.568125 7.11625 0.568125 8 0 C9.9078584 3.1749094 10.1609041 5.10585211 9.625 8.75 C9.45871094 9.94882813 9.45871094 9.94882813 9.2890625 11.171875 C9.14597656 12.07679687 9.14597656 12.07679687 9 13 C7.88625 12.690625 7.88625 12.690625 6.75 12.375 C3.62463243 11.94881351 2.67770324 12.52264649 0 14 C-0.66 13.67 -1.32 13.34 -2 13 C-2.05391993 11.20866022 -2.09275571 9.41686101 -2.125 7.625 C-2.14820313 6.62726563 -2.17140625 5.62953125 -2.1953125 4.6015625 C-2 2 -2 2 0 0 Z " fill="#28ADA4" transform="translate(142,115)"/>
<path d="M0 0 C2.08658519 3.39070093 2.5883927 6.04936331 2 10 C-0.125 12 -0.125 12 -3 13 C-6.3125 12.1875 -6.3125 12.1875 -9 11 C-10.31720856 4.77319588 -10.31720856 4.77319588 -9 1.5625 C-6.05971021 -0.7346014 -3.61386759 -0.27274472 0 0 Z " fill="#31B4AC" transform="translate(121,116)"/>
<path d="M0 0 C3.625 0.25 3.625 0.25 5.5625 1.3125 C7.21662584 4.32884711 6.93075763 6.88666608 6.625 10.25 C3.8384483 13.0365517 1.47075573 12.90662895 -2.375 13.25 C-3.035 12.92 -3.695 12.59 -4.375 12.25 C-4.40187279 10.43757948 -4.42133715 8.62504767 -4.4375 6.8125 C-4.44910156 5.80316406 -4.46070312 4.79382813 -4.47265625 3.75390625 C-4.32277658 -0.0890084 -3.95522917 0.29297994 0 0 Z M0.625 5.25 C0.295 5.91 -0.035 6.57 -0.375 7.25 C0.285 7.25 0.945 7.25 1.625 7.25 C1.295 6.59 0.965 5.93 0.625 5.25 Z " fill="#339E95" transform="translate(103.375,115.75)"/>
<path d="M0 0 C3.5 -0.3125 3.5 -0.3125 7 0 C9 2 9 2 9.4375 5.9375 C9.35353914 9.22996504 9.28889368 9.71936042 6.8125 12.125 C4 13 4 13 1.25 12.25 C-1 11 -1 11 -2 10 C-2.35897436 3.53846154 -2.35897436 3.53846154 0 0 Z " fill="#2C9F93" transform="translate(155,116)"/>
<path d="M0 0 C1.175625 0.0825 2.35125 0.165 3.5625 0.25 C5.69836678 3.45380017 5.79382175 4.26939967 5.6875 7.9375 C5.66945313 8.74574219 5.65140625 9.55398437 5.6328125 10.38671875 C5.59800781 11.30904297 5.59800781 11.30904297 5.5625 12.25 C1.86831799 13.481394 -0.6431261 12.89432764 -4.4375 12.25 C-4.46437279 10.43757948 -4.48383715 8.62504767 -4.5 6.8125 C-4.51160156 5.80316406 -4.52320312 4.79382813 -4.53515625 3.75390625 C-4.38410429 -0.11906608 -3.99728482 0.29071162 0 0 Z " fill="#26A89C" transform="translate(85.4375,115.75)"/>
<path d="M0 0 C6.0546875 -0.1953125 6.0546875 -0.1953125 8 0 C10 2 10 2 10.265625 3.875 C10.26046875 4.57625 10.2553125 5.2775 10.25 6 C10.25515625 6.70125 10.2603125 7.4025 10.265625 8.125 C10 10 10 10 8 12 C5.31160615 12.26991906 2.70858064 12.08737357 0 12 C0 8.04 0 4.08 0 0 Z M4 5 C5 7 5 7 5 7 Z " fill="#33A198" transform="translate(51,116)"/>
<path d="M0 0 C6.15234375 -0.09765625 6.15234375 -0.09765625 8 0 C9.56422584 1.56422584 9.42160514 3.27926252 9.6875 5.4375 C9.79449219 6.24058594 9.90148437 7.04367188 10.01171875 7.87109375 C10 10 10 10 8 12 C5.31160615 12.26991906 2.70858064 12.08737357 0 12 C0 8.04 0 4.08 0 0 Z " fill="#37A099" transform="translate(70,116)"/>
<path d="M0 0 C2.97 0 5.94 0 9 0 C9 3.96 9 7.92 9 12 C2.25 13.125 2.25 13.125 0 12 C0 8.04 0 4.08 0 0 Z " fill="#36A9A0" transform="translate(124,116)"/>
<path d="M0 0 C2.97 0 5.94 0 9 0 C9 3.96 9 7.92 9 12 C6.03 12 3.06 12 0 12 C0 8.04 0 4.08 0 0 Z " fill="#3A9E96" transform="translate(40,116)"/>
<path d="M0 0 C1.32 0.33 2.64 0.66 4 1 C3.34 1 2.68 1 2 1 C2.01160156 1.78246094 2.02320312 2.56492187 2.03515625 3.37109375 C2.04417969 4.38300781 2.05320312 5.39492187 2.0625 6.4375 C2.07410156 7.44683594 2.08570312 8.45617187 2.09765625 9.49609375 C2 12 2 12 1 13 C2.32 14.32 3.64 15.64 5 17 C2.03003238 18.26865284 0.91197631 17.96850923 -2.19921875 16.85546875 C-3.35035156 16.30503906 -4.50148438 15.75460938 -5.6875 15.1875 C-6.84636719 14.64480469 -8.00523438 14.10210937 -9.19921875 13.54296875 C-12 12 -12 12 -13 10 C-12.01 9.01 -11.02 8.02 -10 7 C-10 8.65 -10 10.3 -10 12 C-9.01 12 -8.02 12 -7 12 C-7 11.34 -7 10.68 -7 10 C-4.69 10 -2.38 10 0 10 C0 6.7 0 3.4 0 0 Z " fill="#2BA399" transform="translate(78,73)"/>
<path d="M0 0 C0.33 1.32 0.66 2.64 1 4 C-1.97 4 -4.94 4 -8 4 C-7.67 4.99 -7.34 5.98 -7 7 C-6.34 7 -5.68 7 -5 7 C-5 7.66 -5 8.32 -5 9 C-2.03 9 0.94 9 4 9 C4 9.33 4 9.66 4 10 C1.69 10 -0.62 10 -3 10 C-3.12375 10.928125 -3.2475 11.85625 -3.375 12.8125 C-4 16 -4 16 -6 19 C-6.99 18.34 -7.98 17.68 -9 17 C-8.34 15.02 -7.68 13.04 -7 11 C-7.66 10.34 -8.32 9.68 -9 9 C-9.125 5.375 -9.125 5.375 -9 2 C-6.03 2 -3.06 2 0 2 C0 1.34 0 0.68 0 0 Z " fill="#2C9F95" transform="translate(109,81)"/>
<path d="M0 0 C1.32 0 2.64 0 4 0 C4 3.3 4 6.6 4 10 C1.6875 10.625 1.6875 10.625 -1 11 C-1.99 10.34 -2.98 9.68 -4 9 C-3.67 8.34 -3.34 7.68 -3 7 C-2.34 7 -1.68 7 -1 7 C-0.67 4.69 -0.34 2.38 0 0 Z " fill="#22AB9E" transform="translate(33,116)"/>
<path d="M0 0 C0.5775 0.37125 1.155 0.7425 1.75 1.125 C4 2.29166667 4 2.29166667 6.25 1.125 C7.11625 0.568125 7.11625 0.568125 8 0 C8.33 0.99 8.66 1.98 9 3 C8.01 3.495 8.01 3.495 7 4 C7 5.98 7 7.96 7 10 C6.071875 9.360625 5.14375 8.72125 4.1875 8.0625 C1.15780057 5.91377907 1.15780057 5.91377907 -2 5 C-1.125 1.125 -1.125 1.125 0 0 Z " fill="#2AA59F" transform="translate(142,115)"/>
<path d="M0 0 C4.75 0.875 4.75 0.875 7 2 C6.43555175 6.34863652 4.84572036 9.17827655 2.4375 12.8125 C1.47650391 14.27623047 1.47650391 14.27623047 0.49609375 15.76953125 C0.00238281 16.50558594 -0.49132812 17.24164063 -1 18 C-3.046875 14.28125 -3.046875 14.28125 -2.625 11.75 C-2.41875 11.1725 -2.2125 10.595 -2 10 C-1.01 10.33 -0.02 10.66 1 11 C1.33 9.68 1.66 8.36 2 7 C2.66 7 3.32 7 4 7 C4 5.35 4 3.7 4 2 C2.68 2 1.36 2 0 2 C0 1.34 0 0.68 0 0 Z " fill="#1F998B" transform="translate(116,71)"/>
<path d="M0 0 C2.31 0 4.62 0 7 0 C7.125 2.875 7.125 2.875 7 6 C5 8 5 8 2.375 8.125 C1.59125 8.08375 0.8075 8.0425 0 8 C0 5.36 0 2.72 0 0 Z " fill="#13A597" transform="translate(71,117)"/>
<path d="M0 0 C6.26086957 1.04347826 6.26086957 1.04347826 9 3 C9.75 5.625 9.75 5.625 10 8 C7.36 8 4.72 8 2 8 C2 7.01 2 6.02 2 5 C1.01 4.34 0.02 3.68 -1 3 C-0.67 2.01 -0.34 1.02 0 0 Z " fill="#309B93" transform="translate(107,67)"/>
<path d="M0 0 C1.32 0 2.64 0 4 0 C4.33 3.96 4.66 7.92 5 12 C4.01 12.33 3.02 12.66 2 13 C1.34 12.67 0.68 12.34 0 12 C0 8.04 0 4.08 0 0 Z " fill="#349B93" transform="translate(63,116)"/>
<path d="M0 0 C1.32 0 2.64 0 4 0 C4 3.96 4 7.92 4 12 C2.68 12 1.36 12 0 12 C-1.31157516 9.37684968 -0.89649988 7.76966564 -0.5625 4.875 C-0.46066406 3.96492188 -0.35882813 3.05484375 -0.25390625 2.1171875 C-0.17011719 1.41851562 -0.08632812 0.71984375 0 0 Z " fill="#39A19C" transform="translate(93,116)"/>
<path d="M0 0 C2.64 0 5.28 0 8 0 C7.34 1.32 6.68 2.64 6 4 C5.01 4 4.02 4 3 4 C4.32 4.66 5.64 5.32 7 6 C6.67 6.66 6.34 7.32 6 8 C4.33388095 8.042721 2.66617115 8.04063832 1 8 C0 7 0 7 -0.0625 3.4375 C-0.041875 2.303125 -0.02125 1.16875 0 0 Z " fill="#1FA69C" transform="translate(52,117)"/>
<path d="M0 0 C1.32 0 2.64 0 4 0 C4 2.31 4 4.62 4 7 C4.69867188 6.97679687 5.39734375 6.95359375 6.1171875 6.9296875 C7.02726562 6.91164063 7.93734375 6.89359375 8.875 6.875 C10.23238281 6.84019531 10.23238281 6.84019531 11.6171875 6.8046875 C14 7 14 7 16 9 C15.34 9 14.68 9 14 9 C14 9.66 14 10.32 14 11 C13.34 10.67 12.68 10.34 12 10 C9.66922657 9.69208131 7.33758104 9.49104726 4.99609375 9.28125 C3 9 3 9 2 8 C1.95936168 6.33382885 1.957279 4.66611905 2 3 C1.01 2.67 0.02 2.34 -1 2 C-0.67 1.34 -0.34 0.68 0 0 Z " fill="#26A498" transform="translate(86,56)"/>
<path d="M0 0 C0.33 0 0.66 0 1 0 C1.33 2.64 1.66 5.28 2 8 C5.465 7.505 5.465 7.505 9 7 C9.33 8.32 9.66 9.64 10 11 C6.30581799 12.231394 3.7943739 11.64432764 0 11 C0 7.37 0 3.74 0 0 Z " fill="#42A39D" transform="translate(81,117)"/>
<path d="M0 0 C1.66611905 -0.042721 3.33382885 -0.04063832 5 0 C6 1 6 1 6.09765625 2.84765625 C6.06510417 4.8984375 6.03255208 6.94921875 6 9 C8.97 9 11.94 9 15 9 C15 9.66 15 10.32 15 11 C11.7 11 8.4 11 5 11 C4.34 9.35 3.68 7.7 3 6 C3.66 6 4.32 6 5 6 C4.80528889 4.05000871 4.80528889 4.05000871 4 2 C2.0162233 0.71563266 2.0162233 0.71563266 0 0 Z " fill="#309B91" transform="translate(84,84)"/>
<path d="M0 0 C0.33 0.66 0.66 1.32 1 2 C1.99 1.67 2.98 1.34 4 1 C6.1875 1.4375 6.1875 1.4375 8 2 C8 2.99 8 3.98 8 5 C4.5647952 7.29013653 3.014669 7.17842973 -1 7 C-0.67 4.69 -0.34 2.38 0 0 Z M3 3 C2.67 3.66 2.34 4.32 2 5 C2.66 5 3.32 5 4 5 C3.67 4.34 3.34 3.68 3 3 Z " fill="#199E93" transform="translate(101,118)"/>
<path d="M0 0 C1.65 0 3.3 0 5 0 C4.01 0.33 3.02 0.66 2 1 C2 1.66 2 2.32 2 3 C3.32 3.33 4.64 3.66 6 4 C6 5.32 6 6.64 6 8 C4.33388095 8.042721 2.66617115 8.04063832 1 8 C0 7 0 7 -0.0625 3.4375 C-0.041875 2.303125 -0.02125 1.16875 0 0 Z " fill="#1DA89B" transform="translate(41,117)"/>
<path d="M0 0 C0.99 0.66 1.98 1.32 3 2 C2.34 2 1.68 2 1 2 C1.556875 3.11375 1.556875 3.11375 2.125 4.25 C3 7 3 7 2.125 9.3125 C1.568125 10.1478125 1.568125 10.1478125 1 11 C0.01 11 -0.98 11 -2 11 C-2.28571429 3.57142857 -2.28571429 3.57142857 0 0 Z " fill="#0EA189" transform="translate(70,74)"/>
<path d="M0 0 C1.65 0 3.3 0 5 0 C3.68 0.33 2.36 0.66 1 1 C1 1.66 1 2.32 1 3 C2.32 3 3.64 3 5 3 C5 3.66 5 4.32 5 5 C3.68 5 2.36 5 1 5 C1 5.66 1 6.32 1 7 C1.66 7.33 2.32 7.66 3 8 C1.68 8.33 0.36 8.66 -1 9 C-2.0326802 6.21176345 -2.04509293 5.1322726 -1.0625 2.25 C-0.711875 1.5075 -0.36125 0.765 0 0 Z " fill="#14A799" transform="translate(126,117)"/>
<path d="M0 0 C1.65 0 3.3 0 5 0 C5 2.97 5 5.94 5 9 C2.69 9 0.38 9 -2 9 C-1.67 8.01 -1.34 7.02 -1 6 C0.65 6.33 2.3 6.66 4 7 C3.73323796 5.01508358 3.73323796 5.01508358 3 3 C2.01 2.67 1.02 2.34 0 2 C0 1.34 0 0.68 0 0 Z " fill="#33B0A9" transform="translate(43,118)"/>
<path d="M0 0 C2.625 0.375 2.625 0.375 5 1 C4.67 2.65 4.34 4.3 4 6 C-0.75 5.125 -0.75 5.125 -3 4 C-2 2 -2 2 0 0 Z " fill="#2BB5A8" transform="translate(157,118)"/>
<path d="M0 0 C0.928125 0.350625 1.85625 0.70125 2.8125 1.0625 C5.9802953 2.32382628 5.9802953 2.32382628 9 1 C8.67 2.32 8.34 3.64 8 5 C5.39417629 5.93065133 4.35801776 6.14917407 1.75 5.0625 C1.1725 4.711875 0.595 4.36125 0 4 C0 2.68 0 1.36 0 0 Z " fill="#3AB1A7" transform="translate(154,123)"/>
<path d="M0 0 C0.33 0.99 0.66 1.98 1 3 C0.67 3.66 0.34 4.32 0 5 C-3.0625 5.625 -3.0625 5.625 -6 6 C-6.33 4.68 -6.66 3.36 -7 2 C-4.69 1.34 -2.38 0.68 0 0 Z " fill="#2CB1AA" transform="translate(107,123)"/>
<path d="M0 0 C0.33 1.32 0.66 2.64 1 4 C2.32 3.67 3.64 3.34 5 3 C4.67 4.32 4.34 5.64 4 7 C2.35 7.33 0.7 7.66 -1 8 C-1.04241723 5.66705225 -1.04092937 3.33297433 -1 1 C-0.67 0.67 -0.34 0.34 0 0 Z " fill="#1BA498" transform="translate(83,118)"/>
<path d="M0 0 C1.65 0 3.3 0 5 0 C5.33 1.32 5.66 2.64 6 4 C5.67 3.34 5.34 2.68 5 2 C3.10646634 3.89353366 1.5801368 5.84526801 0 8 C-0.79953138 4.71303767 -1.09658936 3.28976808 0 0 Z " fill="#17B0A1" transform="translate(83,85)"/>
<path d="M0 0 C2.475 0.495 2.475 0.495 5 1 C5.33 2.32 5.66 3.64 6 5 C4.68 5 3.36 5 2 5 C1.34 5.99 0.68 6.98 0 8 C0 5.36 0 2.72 0 0 Z " fill="#319A8F" transform="translate(25,116)"/>
<path d="M0 0 C0 1.65 0 3.3 0 5 C0.99 5 1.98 5 3 5 C2.67 6.65 2.34 8.3 2 10 C1.01 9.67 0.02 9.34 -1 9 C-2.4477922 6.10441559 -3 4.25811062 -3 1 C-1 0 -1 0 0 0 Z " fill="#18A092" transform="translate(100,94)"/>
<path d="M0 0 C0.66 0.66 1.32 1.32 2 2 C6.65194714 2.34216235 6.65194714 2.34216235 11 1 C11.66 1.66 12.32 2.32 13 3 C12.67 3.66 12.34 4.32 12 5 C8.37 5 4.74 5 1 5 C0.67 3.35 0.34 1.7 0 0 Z " fill="#38A69F" transform="translate(25,124)"/>
<path d="M0 0 C0.66 0 1.32 0 2 0 C2 0.66 2 1.32 2 2 C4.31 2 6.62 2 9 2 C9 2.66 9 3.32 9 4 C7.576875 4.2165625 7.576875 4.2165625 6.125 4.4375 C3.1065506 4.82935399 3.1065506 4.82935399 1 6 C0.67 4.02 0.34 2.04 0 0 Z " fill="#32A29A" transform="translate(111,121)"/>
<path d="M0 0 C0 0.66 0 1.32 0 2 C0.66 2 1.32 2 2 2 C2 2.66 2 3.32 2 4 C-0.31 4 -2.62 4 -5 4 C-5 3.34 -5 2.68 -5 2 C-5.66 1.67 -6.32 1.34 -7 1 C-4.53721199 -0.231394 -2.7204945 -0.07159196 0 0 Z " fill="#1FAFA4" transform="translate(118,119)"/>
<path d="M0 0 C1.32 0 2.64 0 4 0 C4 3.3 4 6.6 4 10 C3.34 9.67 2.68 9.34 2 9 C1.3671875 6.93359375 1.3671875 6.93359375 0.875 4.4375 C0.70742188 3.61121094 0.53984375 2.78492187 0.3671875 1.93359375 C0.24601562 1.29550781 0.12484375 0.65742187 0 0 Z " fill="#27988B" transform="translate(33,116)"/>
<path d="M0 0 C7.75 0.75 7.75 0.75 10 3 C10 3.99 10 4.98 10 6 C6.40992874 4.66654496 3.20429093 3.1056769 0 1 C0 0.67 0 0.34 0 0 Z " fill="#279E91" transform="translate(86,100)"/>
<path d="M0 0 C0 1.98 0 3.96 0 6 C-3 4 -6 2 -9 0 C-5.93109813 -1.53445094 -3.29905734 -0.54984289 0 0 Z " fill="#0EA095" transform="translate(149,119)"/>
<path d="M0 0 C2.31 0 4.62 0 7 0 C7.33 0.99 7.66 1.98 8 3 C6.906875 2.979375 5.81375 2.95875 4.6875 2.9375 C1.05615809 2.81455548 1.05615809 2.81455548 -2 4 C-1.34 2.68 -0.68 1.36 0 0 Z " fill="#319E94" transform="translate(114,116)"/>
<path d="M0 0 C2.31 0.33 4.62 0.66 7 1 C7.33 2.65 7.66 4.3 8 6 C6.68 5.67 5.36 5.34 4 5 C4 4.34 4 3.68 4 3 C2.68 2.34 1.36 1.68 0 1 C0 0.67 0 0.34 0 0 Z " fill="#26AA9D" transform="translate(109,69)"/>
<path d="M0 0 C1.65 0 3.3 0 5 0 C5 1.65 5 3.3 5 5 C3.68 5.33 2.36 5.66 1 6 C1 5.34 1 4.68 1 4 C1.99 4 2.98 4 4 4 C2.68 3.67 1.36 3.34 0 3 C0 2.01 0 1.02 0 0 Z " fill="#21B1A4" transform="translate(73,118)"/>
<path d="M0 0 C0.66 0.66 1.32 1.32 2 2 C1.625 4.125 1.625 4.125 1 6 C1.66 6 2.32 6 3 6 C3 5.34 3 4.68 3 4 C3.99 4.33 4.98 4.66 6 5 C5.67 5.66 5.34 6.32 5 7 C3.35 7 1.7 7 0 7 C-0.93423645 3.98968256 -1.04449911 3.13349732 0 0 Z " fill="#11A196" transform="translate(53,118)"/>
<path d="M0 0 C1.5 1.1875 1.5 1.1875 3 3 C3.1875 5.6875 3.1875 5.6875 3 8 C2.01 8.495 2.01 8.495 1 9 C-1.14809171 5.77786243 -1.29386153 4.72224599 -1 1 C-0.67 0.67 -0.34 0.34 0 0 Z " fill="#09B1AB" transform="translate(109,77)"/>
<path d="M0 0 C0.33 0.66 0.66 1.32 1 2 C2.32 2 3.64 2 5 2 C4.67 3.32 4.34 4.64 4 6 C2.68 5.67 1.36 5.34 0 5 C0 3.35 0 1.7 0 0 Z " fill="#3DA8A3" transform="translate(140,123)"/>
<path d="M0 0 C1.62463842 -0.05395478 3.24978541 -0.09277195 4.875 -0.125 C5.77992187 -0.14820313 6.68484375 -0.17140625 7.6171875 -0.1953125 C10 0 10 0 12 2 C11.34 2 10.68 2 10 2 C10 2.66 10 3.32 10 4 C9.34 3.67 8.68 3.34 8 3 C8 2.67 8 2.34 8 2 C5.36 1.67 2.72 1.34 0 1 C0 0.67 0 0.34 0 0 Z " fill="#14A89A" transform="translate(90,63)"/>
</svg>
